# xmcd CD database file
#
# Track frame offsets:
#	150
#	21210
#	47542
#
# Disc length: 913 seconds
#
# Revision: 0
# Processed by: cddbd v1.5.1PL0 Copyright (c) Steve Scherf et al.
# Submitted via: CDex 1.51
#
DISCID=1a038f03
DTITLE=石原千宝美 - 見つめていたくて
DYEAR=2001
DGENRE=JPop
TTITLE0=見つめていたくて
TTITLE1=思ってもいないこと
TTITLE2=見つめていたくて(Instrumental)
EXTD=YEAR: 2001
EXTT0=
EXTT1=
EXTT2=
PLAYORDER=
